<mxfile host="app.diagrams.net" agent="Mozilla/5.0 (Windows NT 10.0; Win64; x64) AppleWebKit/537.36 (KHTML, like Gecko) Chrome/131.0.0.0 Safari/537.36" version="24.8.6">
  <diagram name="Page-1" id="aGkLq3BEBzIO64yZJG-1">
    <mxGraphModel dx="2333" dy="1238" grid="1" gridSize="10" guides="1" tooltips="1" connect="1" arrows="1" fold="1" page="1" pageScale="1" pageWidth="3000" pageHeight="2000" math="0" shadow="0">
      <root>
        <mxCell id="0" />
        <mxCell id="1" parent="0" />
        <mxCell id="357Z-w5QnsONM-EpSFmu-37" style="edgeStyle=orthogonalEdgeStyle;rounded=0;orthogonalLoop=1;jettySize=auto;html=1;entryX=0.5;entryY=0;entryDx=0;entryDy=0;" edge="1" parent="1" source="357Z-w5QnsONM-EpSFmu-1" target="357Z-w5QnsONM-EpSFmu-35">
          <mxGeometry relative="1" as="geometry" />
        </mxCell>
        <mxCell id="357Z-w5QnsONM-EpSFmu-1" value="&lt;b&gt;¬Prepared(y)&lt;/b&gt; ∨ ¬Test(f(y)) ∨ ¬Fair(f(y)) ∨ Pass(y, f(y))" style="rounded=1;whiteSpace=wrap;html=1;" vertex="1" parent="1">
          <mxGeometry x="870" y="660" width="340" height="60" as="geometry" />
        </mxCell>
        <mxCell id="357Z-w5QnsONM-EpSFmu-26" style="edgeStyle=orthogonalEdgeStyle;rounded=0;orthogonalLoop=1;jettySize=auto;html=1;entryX=0.5;entryY=0;entryDx=0;entryDy=0;" edge="1" parent="1" source="357Z-w5QnsONM-EpSFmu-2" target="357Z-w5QnsONM-EpSFmu-24">
          <mxGeometry relative="1" as="geometry" />
        </mxCell>
        <mxCell id="357Z-w5QnsONM-EpSFmu-2" value="&lt;b&gt;¬Smart(x)&lt;/b&gt; ∨ ¬Studies(x) ∨ ¬AttendsClass(x) ∨ Prepared(x)" style="rounded=1;whiteSpace=wrap;html=1;" vertex="1" parent="1">
          <mxGeometry x="830" y="290" width="340" height="60" as="geometry" />
        </mxCell>
        <mxCell id="357Z-w5QnsONM-EpSFmu-43" style="edgeStyle=orthogonalEdgeStyle;rounded=0;orthogonalLoop=1;jettySize=auto;html=1;entryX=0.5;entryY=0;entryDx=0;entryDy=0;" edge="1" parent="1" source="357Z-w5QnsONM-EpSFmu-3" target="357Z-w5QnsONM-EpSFmu-38">
          <mxGeometry relative="1" as="geometry" />
        </mxCell>
        <mxCell id="357Z-w5QnsONM-EpSFmu-3" value="¬Test(z) ∨ Fair(z) ∨ &lt;b&gt;¬Pass(a, z)&lt;/b&gt;" style="rounded=1;whiteSpace=wrap;html=1;" vertex="1" parent="1">
          <mxGeometry x="1250" y="450" width="340" height="60" as="geometry" />
        </mxCell>
        <mxCell id="357Z-w5QnsONM-EpSFmu-19" style="edgeStyle=orthogonalEdgeStyle;rounded=0;orthogonalLoop=1;jettySize=auto;html=1;entryX=0.5;entryY=0;entryDx=0;entryDy=0;" edge="1" parent="1" source="357Z-w5QnsONM-EpSFmu-4" target="357Z-w5QnsONM-EpSFmu-17">
          <mxGeometry relative="1" as="geometry" />
        </mxCell>
        <mxCell id="357Z-w5QnsONM-EpSFmu-4" value="&lt;b&gt;¬Student(b)&lt;/b&gt; ∨ ¬InformaticsITS(b) ∨ Smart(b)" style="rounded=1;whiteSpace=wrap;html=1;" vertex="1" parent="1">
          <mxGeometry x="640" y="40" width="340" height="60" as="geometry" />
        </mxCell>
        <mxCell id="357Z-w5QnsONM-EpSFmu-80" style="edgeStyle=orthogonalEdgeStyle;rounded=0;orthogonalLoop=1;jettySize=auto;html=1;entryX=0.5;entryY=0;entryDx=0;entryDy=0;" edge="1" parent="1" source="357Z-w5QnsONM-EpSFmu-5" target="357Z-w5QnsONM-EpSFmu-62">
          <mxGeometry relative="1" as="geometry" />
        </mxCell>
        <mxCell id="357Z-w5QnsONM-EpSFmu-5" value="&lt;font color=&quot;#ff0000&quot;&gt;Student(f(AI-exam)&lt;/font&gt;" style="rounded=1;whiteSpace=wrap;html=1;" vertex="1" parent="1">
          <mxGeometry x="1070" y="730" width="160" height="60" as="geometry" />
        </mxCell>
        <mxCell id="357Z-w5QnsONM-EpSFmu-67" style="edgeStyle=orthogonalEdgeStyle;rounded=0;orthogonalLoop=1;jettySize=auto;html=1;entryX=0.5;entryY=0;entryDx=0;entryDy=0;" edge="1" parent="1" source="357Z-w5QnsONM-EpSFmu-6" target="357Z-w5QnsONM-EpSFmu-38">
          <mxGeometry relative="1" as="geometry" />
        </mxCell>
        <mxCell id="357Z-w5QnsONM-EpSFmu-6" value="&lt;b style=&quot;&quot;&gt;&lt;font color=&quot;#330000&quot;&gt;Pass(f(AI-exam), AI-exam)&lt;/font&gt;&lt;/b&gt;" style="rounded=1;whiteSpace=wrap;html=1;" vertex="1" parent="1">
          <mxGeometry x="1620" y="450" width="200" height="60" as="geometry" />
        </mxCell>
        <mxCell id="357Z-w5QnsONM-EpSFmu-18" style="edgeStyle=orthogonalEdgeStyle;rounded=0;orthogonalLoop=1;jettySize=auto;html=1;entryX=0.5;entryY=0;entryDx=0;entryDy=0;" edge="1" parent="1" source="357Z-w5QnsONM-EpSFmu-8" target="357Z-w5QnsONM-EpSFmu-17">
          <mxGeometry relative="1" as="geometry" />
        </mxCell>
        <mxCell id="357Z-w5QnsONM-EpSFmu-8" value="&lt;b&gt;Student(Jono)&lt;/b&gt;" style="rounded=1;whiteSpace=wrap;html=1;" vertex="1" parent="1">
          <mxGeometry x="390" y="40" width="200" height="60" as="geometry" />
        </mxCell>
        <mxCell id="357Z-w5QnsONM-EpSFmu-22" style="edgeStyle=orthogonalEdgeStyle;rounded=0;orthogonalLoop=1;jettySize=auto;html=1;entryX=0.5;entryY=0;entryDx=0;entryDy=0;" edge="1" parent="1" source="357Z-w5QnsONM-EpSFmu-9" target="357Z-w5QnsONM-EpSFmu-20">
          <mxGeometry relative="1" as="geometry" />
        </mxCell>
        <mxCell id="357Z-w5QnsONM-EpSFmu-9" value="&lt;b&gt;InformaticsITS(Jono)&lt;/b&gt;" style="rounded=1;whiteSpace=wrap;html=1;" vertex="1" parent="1">
          <mxGeometry x="780" y="150" width="200" height="60" as="geometry" />
        </mxCell>
        <mxCell id="357Z-w5QnsONM-EpSFmu-33" style="edgeStyle=orthogonalEdgeStyle;rounded=0;orthogonalLoop=1;jettySize=auto;html=1;entryX=0.5;entryY=0;entryDx=0;entryDy=0;" edge="1" parent="1" source="357Z-w5QnsONM-EpSFmu-10" target="357Z-w5QnsONM-EpSFmu-30">
          <mxGeometry relative="1" as="geometry" />
        </mxCell>
        <mxCell id="357Z-w5QnsONM-EpSFmu-10" value="&lt;b&gt;AttendsClass(Jono)&lt;/b&gt;" style="rounded=1;whiteSpace=wrap;html=1;" vertex="1" parent="1">
          <mxGeometry x="470" y="540" width="200" height="60" as="geometry" />
        </mxCell>
        <mxCell id="357Z-w5QnsONM-EpSFmu-29" style="edgeStyle=orthogonalEdgeStyle;rounded=0;orthogonalLoop=1;jettySize=auto;html=1;entryX=0.5;entryY=0;entryDx=0;entryDy=0;" edge="1" parent="1" source="357Z-w5QnsONM-EpSFmu-11" target="357Z-w5QnsONM-EpSFmu-27">
          <mxGeometry relative="1" as="geometry" />
        </mxCell>
        <mxCell id="357Z-w5QnsONM-EpSFmu-11" value="&lt;b&gt;Studies(Jono)&lt;/b&gt;" style="rounded=1;whiteSpace=wrap;html=1;" vertex="1" parent="1">
          <mxGeometry x="1000" y="420" width="200" height="60" as="geometry" />
        </mxCell>
        <mxCell id="357Z-w5QnsONM-EpSFmu-21" style="edgeStyle=orthogonalEdgeStyle;rounded=0;orthogonalLoop=1;jettySize=auto;html=1;entryX=0.5;entryY=0;entryDx=0;entryDy=0;" edge="1" parent="1" source="357Z-w5QnsONM-EpSFmu-17" target="357Z-w5QnsONM-EpSFmu-20">
          <mxGeometry relative="1" as="geometry" />
        </mxCell>
        <mxCell id="357Z-w5QnsONM-EpSFmu-17" value="&lt;b&gt;¬InformaticsITS(Jono)&lt;/b&gt; ∨ Smart(Jono)" style="rounded=1;whiteSpace=wrap;html=1;" vertex="1" parent="1">
          <mxGeometry x="420" y="150" width="340" height="60" as="geometry" />
        </mxCell>
        <mxCell id="357Z-w5QnsONM-EpSFmu-25" style="edgeStyle=orthogonalEdgeStyle;rounded=0;orthogonalLoop=1;jettySize=auto;html=1;entryX=0.5;entryY=0;entryDx=0;entryDy=0;" edge="1" parent="1" source="357Z-w5QnsONM-EpSFmu-20" target="357Z-w5QnsONM-EpSFmu-24">
          <mxGeometry relative="1" as="geometry" />
        </mxCell>
        <mxCell id="357Z-w5QnsONM-EpSFmu-20" value="Smart(Jono)" style="rounded=1;whiteSpace=wrap;html=1;" vertex="1" parent="1">
          <mxGeometry x="600" y="290" width="200" height="60" as="geometry" />
        </mxCell>
        <mxCell id="357Z-w5QnsONM-EpSFmu-28" style="edgeStyle=orthogonalEdgeStyle;rounded=0;orthogonalLoop=1;jettySize=auto;html=1;entryX=0.5;entryY=0;entryDx=0;entryDy=0;" edge="1" parent="1" source="357Z-w5QnsONM-EpSFmu-24" target="357Z-w5QnsONM-EpSFmu-27">
          <mxGeometry relative="1" as="geometry" />
        </mxCell>
        <mxCell id="357Z-w5QnsONM-EpSFmu-24" value="&lt;b&gt;¬Studies(Jono) &lt;/b&gt;∨ ¬AttendsClass(Jono) ∨ Prepared(Jono)" style="rounded=1;whiteSpace=wrap;html=1;" vertex="1" parent="1">
          <mxGeometry x="560" y="420" width="370" height="60" as="geometry" />
        </mxCell>
        <mxCell id="357Z-w5QnsONM-EpSFmu-34" style="edgeStyle=orthogonalEdgeStyle;rounded=0;orthogonalLoop=1;jettySize=auto;html=1;entryX=0.5;entryY=0;entryDx=0;entryDy=0;" edge="1" parent="1" source="357Z-w5QnsONM-EpSFmu-27" target="357Z-w5QnsONM-EpSFmu-30">
          <mxGeometry relative="1" as="geometry" />
        </mxCell>
        <mxCell id="357Z-w5QnsONM-EpSFmu-27" value="&lt;b&gt;¬AttendsClass(Jono)&lt;/b&gt; ∨ Prepared(Jono)" style="rounded=1;whiteSpace=wrap;html=1;" vertex="1" parent="1">
          <mxGeometry x="710" y="540" width="370" height="60" as="geometry" />
        </mxCell>
        <mxCell id="357Z-w5QnsONM-EpSFmu-36" style="edgeStyle=orthogonalEdgeStyle;rounded=0;orthogonalLoop=1;jettySize=auto;html=1;entryX=0.5;entryY=0;entryDx=0;entryDy=0;" edge="1" parent="1" source="357Z-w5QnsONM-EpSFmu-30" target="357Z-w5QnsONM-EpSFmu-35">
          <mxGeometry relative="1" as="geometry" />
        </mxCell>
        <mxCell id="357Z-w5QnsONM-EpSFmu-30" value="&lt;b&gt;Prepared(Jono)&lt;/b&gt;" style="rounded=1;whiteSpace=wrap;html=1;" vertex="1" parent="1">
          <mxGeometry x="470" y="660" width="370" height="60" as="geometry" />
        </mxCell>
        <mxCell id="357Z-w5QnsONM-EpSFmu-78" style="edgeStyle=orthogonalEdgeStyle;rounded=0;orthogonalLoop=1;jettySize=auto;html=1;entryX=0.5;entryY=0;entryDx=0;entryDy=0;" edge="1" parent="1" source="357Z-w5QnsONM-EpSFmu-35" target="357Z-w5QnsONM-EpSFmu-77">
          <mxGeometry relative="1" as="geometry" />
        </mxCell>
        <mxCell id="357Z-w5QnsONM-EpSFmu-35" value="¬Test(f(Jono)) ∨ ¬Fair(f(Jono)) ∨ &lt;b&gt;Pass(Jono, f(Jono))&lt;/b&gt;" style="rounded=1;whiteSpace=wrap;html=1;" vertex="1" parent="1">
          <mxGeometry x="620" y="830" width="340" height="60" as="geometry" />
        </mxCell>
        <mxCell id="357Z-w5QnsONM-EpSFmu-42" style="edgeStyle=orthogonalEdgeStyle;rounded=0;orthogonalLoop=1;jettySize=auto;html=1;entryX=0.5;entryY=0;entryDx=0;entryDy=0;" edge="1" parent="1" source="357Z-w5QnsONM-EpSFmu-38" target="357Z-w5QnsONM-EpSFmu-40">
          <mxGeometry relative="1" as="geometry">
            <mxPoint x="1460" y="660" as="targetPoint" />
          </mxGeometry>
        </mxCell>
        <mxCell id="357Z-w5QnsONM-EpSFmu-38" value="&lt;b&gt;¬Test(AI-Exam)&lt;/b&gt; ∨ Fair(AI-Exam)" style="rounded=1;whiteSpace=wrap;html=1;" vertex="1" parent="1">
          <mxGeometry x="1370" y="550" width="340" height="60" as="geometry" />
        </mxCell>
        <mxCell id="357Z-w5QnsONM-EpSFmu-41" style="edgeStyle=orthogonalEdgeStyle;rounded=0;orthogonalLoop=1;jettySize=auto;html=1;entryX=0.5;entryY=0;entryDx=0;entryDy=0;" edge="1" parent="1" source="357Z-w5QnsONM-EpSFmu-39" target="357Z-w5QnsONM-EpSFmu-40">
          <mxGeometry relative="1" as="geometry" />
        </mxCell>
        <mxCell id="357Z-w5QnsONM-EpSFmu-81" style="edgeStyle=orthogonalEdgeStyle;rounded=0;orthogonalLoop=1;jettySize=auto;html=1;entryX=1;entryY=0.5;entryDx=0;entryDy=0;" edge="1" parent="1" source="357Z-w5QnsONM-EpSFmu-39" target="357Z-w5QnsONM-EpSFmu-77">
          <mxGeometry relative="1" as="geometry" />
        </mxCell>
        <mxCell id="357Z-w5QnsONM-EpSFmu-39" value="&lt;b&gt;Test(AI-exam)&lt;/b&gt;" style="rounded=1;whiteSpace=wrap;html=1;" vertex="1" parent="1">
          <mxGeometry x="1170" y="550" width="160" height="60" as="geometry" />
        </mxCell>
        <mxCell id="357Z-w5QnsONM-EpSFmu-82" style="edgeStyle=orthogonalEdgeStyle;rounded=0;orthogonalLoop=1;jettySize=auto;html=1;entryX=0.5;entryY=0;entryDx=0;entryDy=0;" edge="1" parent="1" source="357Z-w5QnsONM-EpSFmu-40" target="357Z-w5QnsONM-EpSFmu-64">
          <mxGeometry relative="1" as="geometry">
            <Array as="points">
              <mxPoint x="1460" y="1130" />
              <mxPoint x="870" y="1130" />
            </Array>
          </mxGeometry>
        </mxCell>
        <mxCell id="357Z-w5QnsONM-EpSFmu-40" value="&lt;b&gt;Fair(AI-Exam)&lt;/b&gt;" style="rounded=1;whiteSpace=wrap;html=1;" vertex="1" parent="1">
          <mxGeometry x="1290" y="660" width="340" height="60" as="geometry" />
        </mxCell>
        <mxCell id="357Z-w5QnsONM-EpSFmu-84" style="edgeStyle=orthogonalEdgeStyle;rounded=0;orthogonalLoop=1;jettySize=auto;html=1;entryX=0.5;entryY=0;entryDx=0;entryDy=0;" edge="1" parent="1" source="357Z-w5QnsONM-EpSFmu-53" target="357Z-w5QnsONM-EpSFmu-64">
          <mxGeometry relative="1" as="geometry" />
        </mxCell>
        <mxCell id="357Z-w5QnsONM-EpSFmu-53" value="¬Fair(Ai-exam)" style="rounded=1;whiteSpace=wrap;html=1;" vertex="1" parent="1">
          <mxGeometry x="700" y="1030" width="340" height="60" as="geometry" />
        </mxCell>
        <mxCell id="357Z-w5QnsONM-EpSFmu-86" style="edgeStyle=orthogonalEdgeStyle;rounded=0;orthogonalLoop=1;jettySize=auto;html=1;entryX=0.5;entryY=0;entryDx=0;entryDy=0;" edge="1" parent="1" source="357Z-w5QnsONM-EpSFmu-54" target="357Z-w5QnsONM-EpSFmu-53">
          <mxGeometry relative="1" as="geometry" />
        </mxCell>
        <mxCell id="357Z-w5QnsONM-EpSFmu-54" value="&lt;b&gt;Test(AI-exam)&lt;/b&gt;" style="rounded=1;whiteSpace=wrap;html=1;" vertex="1" parent="1">
          <mxGeometry x="640" y="930" width="160" height="60" as="geometry" />
        </mxCell>
        <mxCell id="357Z-w5QnsONM-EpSFmu-79" style="edgeStyle=orthogonalEdgeStyle;rounded=0;orthogonalLoop=1;jettySize=auto;html=1;entryX=0.5;entryY=0;entryDx=0;entryDy=0;" edge="1" parent="1" source="357Z-w5QnsONM-EpSFmu-62" target="357Z-w5QnsONM-EpSFmu-77">
          <mxGeometry relative="1" as="geometry" />
        </mxCell>
        <mxCell id="357Z-w5QnsONM-EpSFmu-62" value="&lt;b&gt;¬&lt;/b&gt;&lt;b&gt;Pass(Jono, AI-exam)&lt;/b&gt;" style="rounded=1;whiteSpace=wrap;html=1;" vertex="1" parent="1">
          <mxGeometry x="990" y="830" width="200" height="60" as="geometry" />
        </mxCell>
        <mxCell id="357Z-w5QnsONM-EpSFmu-64" value="&lt;b&gt;{}&lt;/b&gt;" style="rounded=1;whiteSpace=wrap;html=1;" vertex="1" parent="1">
          <mxGeometry x="770" y="1170" width="200" height="60" as="geometry" />
        </mxCell>
        <mxCell id="357Z-w5QnsONM-EpSFmu-87" style="edgeStyle=orthogonalEdgeStyle;rounded=0;orthogonalLoop=1;jettySize=auto;html=1;entryX=0.5;entryY=0;entryDx=0;entryDy=0;" edge="1" parent="1" source="357Z-w5QnsONM-EpSFmu-77" target="357Z-w5QnsONM-EpSFmu-53">
          <mxGeometry relative="1" as="geometry" />
        </mxCell>
        <mxCell id="357Z-w5QnsONM-EpSFmu-77" value="&lt;b&gt;¬Test(Ai-exam)&lt;/b&gt; ∨ ¬Fair(Ai-exam)" style="rounded=1;whiteSpace=wrap;html=1;" vertex="1" parent="1">
          <mxGeometry x="830" y="930" width="340" height="60" as="geometry" />
        </mxCell>
      </root>
    </mxGraphModel>
  </diagram>
</mxfile>
